<svg width="1684" height="772" viewBox="0 0 1684 772" fill="none" xmlns="http://www.w3.org/2000/svg">
<path d="M176.154 355.099C154.638 422.341 182.372 474.79 202.873 502.153C202.873 423.148 204.306 403.632 219.16 366.153C234.013 328.674 256.811 302.767 295.458 276.676C295.98 276.324 200.822 278.009 176.154 355.099Z" fill="#C4C4C4" stroke="#C6C6C6" stroke-width="1.25965"/>
<path d="M366.694 73.1845C345.28 80.7424 332.053 101.107 326.385 110.974C391.467 118.952 532.464 155.818 575.796 224.343C629.961 309.999 655.783 442.262 655.783 483.201C686.015 492.27 720.655 468.085 731.992 442.262L822.687 137.427C825.626 130.289 822.015 95.8671 742.405 24.8228C627.357 38.469 403.425 60.2203 366.694 73.1845Z" fill="#FB0200"/>
<path d="M735.141 27.2074C743.203 23.6803 762.434 22.7986 771.041 22.7986C841.582 69.4057 824.576 195.371 763.483 229.381C716.247 250.165 662.082 300.552 640.038 320.706C635.629 296.143 580.834 204.818 528.559 174.586C551.232 136.167 725.064 31.6161 735.141 27.2074Z" fill="#FEE801" stroke="#FEE801" stroke-width="1.25965"/>
<circle cx="331.421" cy="440.373" r="283.421" stroke="#0176FA" stroke-width="94.4738"/>
<path d="M1507.85 355.099C1529.36 422.341 1501.63 474.79 1481.13 502.153C1481.13 423.148 1479.69 403.632 1464.84 366.153C1449.99 328.674 1427.19 302.767 1388.54 276.676C1388.02 276.324 1483.18 278.009 1507.85 355.099Z" fill="#C4C4C4" stroke="#C6C6C6" stroke-width="1.25965"/>
<path d="M1317.31 73.1845C1338.72 80.7424 1351.95 101.107 1357.62 110.974C1292.53 118.952 1151.54 155.818 1108.2 224.343C1054.04 309.999 1028.22 442.262 1028.22 483.201C997.985 492.27 963.345 468.085 952.008 442.262L861.313 137.427C858.374 130.289 861.985 95.8671 941.595 24.8228C1056.64 38.469 1280.57 60.2203 1317.31 73.1845Z" fill="#FB0200"/>
<path d="M948.859 27.2074C940.797 23.6803 921.566 22.7986 912.959 22.7986C842.418 69.4057 859.424 195.371 920.517 229.381C967.753 250.165 1021.92 300.552 1043.96 320.706C1048.37 296.143 1103.17 204.818 1155.44 174.586C1132.77 136.167 958.936 31.6161 948.859 27.2074Z" fill="#FEE801" stroke="#FEE801" stroke-width="1.25965"/>
<circle r="283.421" transform="matrix(-1 0 0 1 1352.58 440.373)" stroke="#0176FA" stroke-width="94.4738"/>
<circle cx="848.567" cy="125.965" r="125.965" fill="#0176FA"/>
<circle cx="848.566" cy="125.965" r="89.4352" fill="#FEE801"/>
<circle cx="849.198" cy="126.595" r="45.9772" fill="#FB0200"/>
</svg>
